<svg width="30" height="24" viewBox="0 0 30 24" fill="none" xmlns="http://www.w3.org/2000/svg">
<g clip-path="url(#clip0)">
<path d="M24.6589 20.6745H13.5216C13.0824 20.6745 12.7373 20.3294 12.7373 19.8902C12.7373 19.4509 12.7373 4.42348 12.7373 3.98427C12.7373 3.54505 13.0824 3.19995 13.5216 3.19995H24.6589C25.0981 3.19995 25.4432 3.54505 25.4432 3.98427V19.8902C25.4432 20.3294 25.0981 20.6745 24.6589 20.6745Z" fill="#EDEFF1"/>
<path d="M16.6902 7.93728H13.5216C13.0824 7.93728 12.7373 7.59218 12.7373 7.15297C12.7373 6.71375 13.0824 6.36865 13.5216 6.36865H16.6902C17.1295 6.36865 17.4746 6.71375 17.4746 7.15297C17.4746 7.59218 17.1295 7.93728 16.6902 7.93728Z" fill="#398F43"/>
<path d="M16.6902 11.1372H13.5216C13.0824 11.1372 12.7373 10.7921 12.7373 10.3529C12.7373 9.9137 13.0824 9.5686 13.5216 9.5686H16.6902C17.1295 9.5686 17.4746 9.9137 17.4746 10.3529C17.4746 10.7921 17.1295 11.1372 16.6902 11.1372Z" fill="#398F43"/>
<path d="M21.4585 7.93728H19.8585C19.4193 7.93728 19.0742 7.59218 19.0742 7.15297C19.0742 6.71375 19.4193 6.36865 19.8585 6.36865H21.4585C21.8978 6.36865 22.2429 6.71375 22.2429 7.15297C22.2429 7.59218 21.8978 7.93728 21.4585 7.93728Z" fill="#398F43"/>
<path d="M14.0235 0.188231C13.8353 0.0313684 13.5843 -0.0313767 13.3647 0.0313684L0.658823 2.41568C0.282353 2.47843 0 2.79215 0 3.16862V20.6431C0 21.0196 0.282353 21.3647 0.658823 21.4274L13.3647 23.8431C13.4274 23.8431 13.4588 23.8431 13.5216 23.8431C13.7098 23.8431 13.898 23.7804 14.0235 23.6549C14.2118 23.498 14.3059 23.2784 14.3059 23.0274V0.752937C14.3059 0.564702 14.2118 0.345094 14.0235 0.188231Z" fill="#317D3D"/>
<path d="M10.9176 14.5883L8.40781 11.7021L10.949 8.43931C11.2313 8.09421 11.1686 7.59225 10.8235 7.3099C10.4784 7.02754 9.97643 7.09029 9.69408 7.43539L7.34114 10.4472L5.36467 8.18833C5.08232 7.84323 4.58035 7.81186 4.23526 8.12558C3.89016 8.40794 3.85879 8.9099 4.17251 9.255L6.36859 11.7648L4.14114 14.6197C3.85879 14.9648 3.92153 15.4668 4.26663 15.7491C4.42349 15.8746 4.58035 15.906 4.76859 15.906C5.01957 15.906 5.23918 15.8119 5.39604 15.5922L7.43526 12.9883L9.75683 15.6236C9.91369 15.8119 10.1333 15.906 10.3529 15.906C10.5411 15.906 10.7294 15.8432 10.8862 15.7177C11.2 15.404 11.2313 14.9021 10.9176 14.5883Z" fill="#FAFAFA"/>
<path d="M22.3685 24C26.4922 24 29.8352 20.657 29.8352 16.5333C29.8352 12.4096 26.4922 9.06665 22.3685 9.06665C18.2448 9.06665 14.9019 12.4096 14.9019 16.5333C14.9019 20.657 18.2448 24 22.3685 24Z" fill="#317D3D"/>
<path fill-rule="evenodd" clip-rule="evenodd" d="M24.4081 16.3136L22.7453 17.9763V13.741C22.7453 13.5214 22.5571 13.3332 22.3375 13.3332C22.1179 13.3332 21.9297 13.5214 21.9297 13.741V17.9763L20.2983 16.3136C20.1414 16.1567 19.8904 16.1567 19.7336 16.3136C19.5767 16.4704 19.5767 16.7214 19.7336 16.8783L21.9924 19.1371C22.0865 19.2312 22.212 19.2626 22.3375 19.2312C22.463 19.2626 22.5885 19.2312 22.6826 19.1371L24.9414 16.8783C25.0983 16.7214 25.0983 16.4704 24.9414 16.3136C24.8159 16.1567 24.565 16.1567 24.4081 16.3136ZM22.3689 10.1018C18.8238 10.1018 15.9375 12.9881 15.9375 16.5332C15.9375 20.0783 18.8238 22.9646 22.3689 22.9646C25.914 22.9646 28.8002 20.0783 28.8002 16.5332C28.7689 12.9881 25.914 10.1018 22.3689 10.1018ZM22.3689 22.1489C19.263 22.1489 16.7532 19.6391 16.7532 16.5332C16.7532 13.4273 19.263 10.9175 22.3689 10.9175C25.4748 10.9175 27.9846 13.4273 27.9846 16.5332C27.9846 19.6391 25.4748 22.1489 22.3689 22.1489Z" fill="white"/>
</g>
<defs>
<clipPath id="clip0">
<rect width="29.8353" height="24" fill="white"/>
</clipPath>
</defs>
</svg>