<svg width="21" height="15" viewBox="0 0 21 15" fill="none" xmlns="http://www.w3.org/2000/svg">
<g opacity="0.4">
<path d="M13.1832 7.40314C13.1832 8.23131 12.8542 9.02556 12.2686 9.61117C11.683 10.1968 10.8888 10.5258 10.0606 10.5258C9.23244 10.5258 8.43819 10.1968 7.85258 9.61117C7.26698 9.02556 6.93799 8.23131 6.93799 7.40314C6.93799 6.57497 7.26698 5.78072 7.85258 5.19511C8.43819 4.60951 9.23244 4.28052 10.0606 4.28052C10.8888 4.28052 11.683 4.60951 12.2686 5.19511C12.8542 5.78072 13.1832 6.57497 13.1832 7.40314Z" fill="#03014C"/>
<path fill-rule="evenodd" clip-rule="evenodd" d="M0.0683594 7.40322C0.0683594 7.40322 3.81551 0.533447 10.0608 0.533447C16.306 0.533447 20.0532 7.40322 20.0532 7.40322C20.0532 7.40322 16.306 14.273 10.0608 14.273C3.81551 14.273 0.0683594 7.40322 0.0683594 7.40322ZM10.0608 11.7749C11.2202 11.7749 12.3321 11.3143 13.152 10.4945C13.9718 9.67461 14.4324 8.56266 14.4324 7.40322C14.4324 6.24378 13.9718 5.13183 13.152 4.31198C12.3321 3.49213 11.2202 3.03155 10.0608 3.03155C8.90131 3.03155 7.78936 3.49213 6.96952 4.31198C6.14967 5.13183 5.68908 6.24378 5.68908 7.40322C5.68908 8.56266 6.14967 9.67461 6.96952 10.4945C7.78936 11.3143 8.90131 11.7749 10.0608 11.7749Z" fill="#03014C"/>
</g>
</svg>
